<?xml version="1.0" standalone="no"?>
<!DOCTYPE svg PUBLIC "-//W3C//DTD SVG 20010904//EN"
 "http://www.w3.org/TR/2001/REC-SVG-20010904/DTD/svg10.dtd">
<svg version="1.0" xmlns="http://www.w3.org/2000/svg"
 width="400.000000pt" height="400.000000pt" viewBox="0 0 400.000000 400.000000"
 preserveAspectRatio="xMidYMid meet">
<metadata>
Created by potrace 1.11, written by Peter Selinger 2001-2013
</metadata>
<g transform="translate(0.000000,400.000000) scale(0.100000,-0.100000)"
fill="#000000" stroke="none">
<path d="M2760 3545 l-23 -25 30 0 c56 0 82 -61 45 -106 -50 -63 -167 -76
-287 -32 -38 14 -117 48 -175 74 -105 49 -105 49 -210 49 -126 0 -190 -17
-278 -74 -108 -70 -179 -190 -207 -351 -12 -66 -17 -78 -47 -100 -108 -80
-173 -182 -186 -293 -29 -246 87 -423 365 -564 114 -57 113 -53 14 -103 -251
-126 -532 -35 -558 180 -5 46 -4 51 30 85 42 42 56 43 96 9 30 -25 31 -25 31
-5 0 58 -57 95 -141 89 l-54 -3 -6 53 c-8 62 -32 93 -100 127 -44 23 -119 43
-119 32 0 -4 20 -20 45 -37 57 -40 67 -59 99 -205 32 -145 71 -229 136 -294
156 -156 401 -172 618 -40 l66 40 134 -43 c118 -38 132 -45 128 -63 -3 -11
-17 -63 -31 -115 -22 -78 -26 -109 -21 -170 6 -92 27 -155 67 -203 49 -60 143
-75 169 -27 15 28 -5 65 -28 54 -9 -4 -35 -9 -57 -12 -34 -3 -45 1 -67 23 -56
56 -62 224 -13 370 14 44 28 81 29 82 6 7 241 -83 331 -126 121 -58 184 -112
222 -189 24 -50 27 -68 28 -157 0 -93 -2 -105 -32 -165 -18 -36 -45 -78 -61
-93 l-29 -28 -27 78 c-47 133 -151 295 -270 420 -63 67 -96 89 -96 63 0 -5 32
-45 71 -87 86 -93 165 -198 207 -273 35 -63 85 -206 79 -224 -7 -18 -124 -73
-192 -89 -124 -31 -120 -31 -141 16 -75 166 -290 235 -466 149 -34 -17 -72
-38 -84 -47 -19 -14 -25 -11 -101 40 -97 66 -233 205 -299 304 -38 58 -50 69
-60 59 -10 -10 -4 -64 32 -268 24 -140 52 -282 62 -315 15 -52 21 -60 44 -63
24 -3 28 2 48 65 30 90 37 97 86 84 22 -6 48 -17 58 -24 17 -12 17 -18 6 -52
-17 -51 -7 -191 19 -275 11 -35 19 -65 18 -67 -2 -1 -64 22 -137 52 -148 60
-226 83 -310 91 -56 6 -131 -11 -136 -31 -2 -5 15 -23 38 -38 l41 -29 -29 -17
c-45 -27 -94 -89 -95 -119 -5 -101 43 -152 142 -152 60 0 119 28 119 56 0 17
-12 17 -82 -1 -36 -9 -58 17 -58 69 0 79 56 119 186 131 121 12 208 -18 469
-159 147 -80 224 -101 339 -93 276 19 453 199 520 527 4 17 20 33 53 50 65 34
164 129 195 187 48 88 61 154 56 282 -4 87 -11 130 -27 173 -72 187 -229 308
-533 413 -60 21 -108 40 -108 44 0 10 32 55 69 96 l33 38 47 -13 c25 -8 72
-16 103 -18 53 -3 60 -1 88 26 40 40 39 73 -2 107 -46 39 -116 32 -193 -19
l-56 -37 -98 51 c-53 28 -110 61 -125 73 -27 22 -27 23 -17 87 13 81 1 137
-34 168 -53 45 -138 16 -151 -53 -9 -49 2 -73 67 -140 l58 -60 -23 -57 c-13
-31 -35 -77 -50 -102 l-27 -46 -42 16 c-23 9 -101 44 -172 79 -148 73 -212
126 -251 208 -42 91 -26 217 39 291 l33 39 18 -59 c46 -149 197 -348 290 -384
15 -5 26 -8 26 -7 0 2 -44 48 -98 103 -84 85 -106 114 -146 194 -25 52 -49
116 -52 141 l-6 46 52 32 c29 18 93 46 144 63 217 73 461 39 683 -94 89 -53
193 -163 239 -251 26 -52 45 -77 57 -77 24 0 23 11 -22 221 -22 101 -43 210
-47 242 -10 91 -54 92 -83 2 -9 -26 -23 -52 -31 -58 -11 -6 -45 4 -118 37
-291 131 -543 147 -797 51 -37 -14 -69 -25 -70 -25 -2 0 3 28 11 63 46 199
194 347 349 347 85 0 134 -16 177 -60 42 -42 47 -69 23 -125 l-14 -35 27 6
c64 15 98 50 108 112 5 34 10 42 23 37 134 -52 332 -67 423 -32 63 24 98 67
98 118 0 70 -32 108 -91 109 -25 0 -42 -7 -59 -25z m-446 -127 c19 -27 21 -77
4 -113 -17 -37 -25 -31 -30 25 -3 28 -12 58 -21 68 -13 14 -14 21 -5 30 18 18
35 15 52 -10z m-164 -798 c18 -34 8 -144 -14 -137 -17 5 -76 97 -76 118 0 11
9 28 20 39 23 23 51 15 70 -20z m89 -254 c31 -19 81 -46 111 -61 30 -15 57
-29 59 -31 2 -2 -9 -18 -25 -36 -16 -19 -40 -50 -54 -71 -14 -20 -29 -37 -34
-37 -8 0 -206 70 -214 75 -1 1 13 29 32 61 19 33 40 76 47 97 7 20 15 37 17
37 3 0 30 -15 61 -34z m442 -47 c27 -51 -63 -80 -155 -49 -37 12 -39 13 -20
27 35 27 78 42 121 43 33 0 45 -5 54 -21z m-540 -1094 c62 -21 115 -68 145
-128 l26 -50 -99 6 c-54 3 -136 15 -181 26 -97 25 -224 79 -216 92 8 13 84 51
119 60 53 13 160 9 206 -6z m-340 -212 c104 -50 345 -103 467 -103 54 0 55
-17 4 -68 -39 -39 -98 -62 -159 -62 -36 0 -87 31 -109 67 -10 15 -19 30 -21
32 -1 2 -9 -2 -18 -9 -24 -20 -19 -83 10 -114 32 -34 64 -46 129 -46 61 0 122
19 166 52 37 27 90 104 90 130 0 19 13 23 103 33 51 6 163 32 208 50 15 5 15
0 7 -47 -24 -136 -130 -291 -253 -370 -92 -60 -176 -81 -299 -76 -122 5 -188
31 -267 104 -85 81 -135 188 -146 320 -6 72 2 148 15 142 4 -2 37 -18 73 -35z"/>
<path d="M1892 1840 c-89 -57 -120 -71 -170 -79 -57 -8 -64 -26 -19 -47 45
-21 107 -13 182 25 30 15 57 26 60 23 3 -3 5 -26 5 -52 0 -55 26 -148 48 -172
15 -18 62 -25 62 -9 0 5 -7 28 -16 52 -12 30 -18 82 -19 164 -1 66 -3 123 -4
128 0 4 -16 7 -34 7 -22 0 -55 -14 -95 -40z"/>
</g>
</svg>
